<mxfile host="app.diagrams.net" modified="2023-12-05T18:30:52.888Z" agent="Mozilla/5.0 (Windows NT 10.0; Win64; x64) AppleWebKit/537.36 (KHTML, like Gecko) Chrome/119.0.0.0 Safari/537.36 Edg/119.0.0.0" version="22.1.5" etag="wF_wP-AB48P9kcZwVkwl" type="github">
  <diagram name="Page-1" id="CzBl4ljOi8sC6XVggyK8">
    <mxGraphModel>
      <root>
        <mxCell id="0" />
        <mxCell id="1" parent="0" />
      </root>
    </mxGraphModel>
  </diagram>
</mxfile>
